# xmcd CD database file
#
# Track frame offsets:
#	150
#	15337
#	27037
#	46349
#	55124
#	74999
#	93186
#	113736
#	133386
#	153298
#	172760
#	192935
#	215735
#	236472
#
# Disc length: 3408 seconds
#
# Revision: 0
# Processed by: cddbd v1.5.1PL0 Copyright (c) Steve Scherf et al.
# Submitted via: CDex 1.51
#
DISCID=b80d4e0e
DTITLE=RESOUND WAV. - CLANNAD Piano tune collection
DYEAR=2005
DGENRE=Game
TTITLE0=Megmel -メグメル-
TTITLE1=Calm tide -汐-
TTITLE2=With the flow at time -町，時の流れ，人-
TTITLE3=Of every day -日々の遑-
TTITLE4=To the way of the wind -それは風のように-
TTITLE5=Comfortable tea party -資料室のお茶会-
TTITLE6=Her ability -彼女の本気-
TTITLE7=Snow field -雪野原-
TTITLE8=Nagisa -渚-
TTITLE9=Advances together -同じ高みへ-
TTITLE10=Long tract of years -遥かな年月-
TTITLE11=Ana -Ana-
TTITLE12=Two shadows -−影二つ−-
TTITLE13=Loved small palm -小さなてのひら-
EXTD=YEAR: 2005
EXTT0=
EXTT1=
EXTT2=
EXTT3=
EXTT4=
EXTT5=
EXTT6=
EXTT7=
EXTT8=
EXTT9=
EXTT10=
EXTT11=
EXTT12=
EXTT13=
PLAYORDER=
